<?xml version="1.0" standalone="no"?>
<!DOCTYPE svg PUBLIC "-//W3C//DTD SVG 20010904//EN"
 "http://www.w3.org/TR/2001/REC-SVG-20010904/DTD/svg10.dtd">
<svg version="1.0" xmlns="http://www.w3.org/2000/svg"
 width="180.000000pt" height="180.000000pt" viewBox="0 0 180.000000 180.000000"
 preserveAspectRatio="xMidYMid meet">
<metadata>
Created by potrace 1.14, written by Peter Selinger 2001-2017
</metadata>
<g transform="translate(0.000000,180.000000) scale(0.100000,-0.100000)"
fill="#000000" stroke="none">
<path d="M273 1723 c2 -15 21 -93 42 -173 20 -80 38 -149 39 -155 1 -5 4 -14
7 -20 6 -9 10 -26 25 -104 1 -7 30 -41 63 -74 40 -41 61 -70 62 -87 5 -108 0
-140 -50 -320 -50 -177 -52 -159 18 -300 45 -90 61 -132 57 -151 -4 -23 3 -32
60 -73 40 -28 64 -53 64 -65 0 -10 8 -21 18 -24 9 -3 62 -30 117 -60 l100 -55
117 62 c79 41 118 67 118 78 0 9 29 38 65 64 55 41 64 51 60 73 -3 18 16 67
59 155 l64 130 -19 65 c-11 36 -21 75 -23 86 -2 11 -14 54 -25 95 -31 110 -36
141 -32 238 1 15 26 50 68 93 36 38 63 69 60 69 -4 0 -2 11 3 25 5 14 12 36
14 48 2 12 27 109 54 215 28 105 49 192 47 192 -2 0 -59 -29 -127 -64 l-123
-65 -2 -98 c0 -54 -2 -106 -2 -115 -1 -15 -9 -14 -58 13 -116 63 -196 84 -318
83 -122 -1 -185 -17 -307 -80 -36 -19 -68 -34 -70 -34 -2 0 -3 48 -3 108 1 59
-1 113 -3 120 -3 7 -59 40 -125 73 l-119 60 5 -28z"/>
</g>
</svg>
